<?xml version="1.0" encoding="utf-8"?>
<!-- Generator: Adobe Illustrator 17.1.0, SVG Export Plug-In . SVG Version: 6.00 Build 0)  -->
<!DOCTYPE svg PUBLIC "-//W3C//DTD SVG 1.1//EN" "http://www.w3.org/Graphics/SVG/1.1/DTD/svg11.dtd">
<svg version="1.1" id="圖層_1" xmlns="http://www.w3.org/2000/svg" xmlns:xlink="http://www.w3.org/1999/xlink" x="0px" y="0px"
	 viewBox="0 0 366.3 426.9" enable-background="new 0 0 366.3 426.9" xml:space="preserve">
<g>
	<g>
		<path d="M134.5,0c35.6,0,71.1,0,106.7,0c22.5,9.4,32.9,26.5,30,52.2c11.1,0,19.9-0.1,28.7,0c8.9,0.1,17.8-0.1,26.6,0.8
			c17.5,1.8,29.9,12.7,33.4,29.7c3.3,16.4-2.3,30.5-16.5,38.5c-9.7,5.5-11,11.9-10.9,21.3c0.2,72.6-0.6,145.2,0.5,217.8
			c0.5,30.9-9.1,53.8-38.3,66.5c-71.1,0-142.3,0-213.4,0c-29.5-12.4-39.1-35.5-38.7-66.3c0.9-72.6,0.5-145.2,0-217.8
			c0-6.3-2.2-14.9-6.6-18.4C17.3,109.2,11.3,97,16.8,79.5C22.6,61,35.2,52.7,59.1,52.3c14.7-0.3,29.4,0,45.6,0
			C101.4,25.1,112.8,9.3,134.5,0z M311.7,128.8c-82.9,0-164.8,0-246.5,0c-0.9,2.4-1.9,4-1.9,5.5c-0.1,79.4-0.6,158.8,0.2,238.2
			c0.2,24,12.9,34.2,37.6,34.3c55.5,0.2,111.1,0.1,166.6,0c35.1,0,44.8-9.4,44.9-44.2c0.1-72.8,0.1-145.5,0-218.3
			C312.5,139.6,312,134.7,311.7,128.8z M187.9,107.7c34.4,0,68.8,0,103.2,0c11.1,0,22.8,1.8,33.1-1.2c6.6-1.9,14.6-10.7,15.4-17.2
			c0.6-4.8-8.6-12.2-14.9-16.1c-4.1-2.5-10.8-1-16.4-1c-80.5,0-160.9,0-241.4,0c-6.1,0-13.3-1.4-18,1.3C43.2,77,36,84.1,35.9,89.7
			c-0.1,5.6,6.9,12.7,12.6,16.6c3.9,2.7,10.7,1.4,16.3,1.4C105.8,107.7,146.8,107.7,187.9,107.7z M125.4,51c42.3,0,83.6,0,124.9,0
			c2.2-24.2-3.4-30.8-25.7-31c-24.4-0.2-48.9-0.1-73.4,0C128.8,20.2,123.2,26.7,125.4,51z"/>
		<path fill="#FFFFFF" d="M294.6,426.9c29.3-12.7,38.8-35.5,38.3-66.5c-1.1-72.6-0.2-145.2-0.5-217.8c0-9.5,1.2-15.9,10.9-21.3
			c14.2-8,19.8-22.1,16.5-38.5c-3.5-17-15.8-28-33.4-29.7c-8.8-0.9-17.7-0.7-26.6-0.8c-8.8-0.1-17.5,0-28.7,0
			c2.9-25.7-7.6-42.8-30-52.2c53.2,0,106.5,0,159.9,0c0,142.3,0,284.6,0,426.9C365.6,426.9,330.1,426.9,294.6,426.9z"/>
		<path fill="#FFFFFF" d="M134.5,0c-21.7,9.3-33.2,25.1-29.8,52.2c-16.3,0-31-0.2-45.6,0C35.2,52.7,22.6,61,16.8,79.5
			C11.3,97,17.3,109.2,36,124.3c4.4,3.5,6.5,12.1,6.6,18.4c0.4,72.6,0.9,145.2,0,217.8c-0.4,30.8,9.2,53.9,38.7,66.3
			c-35.5,0-71,0-106.5,0c0-142.3,0-284.6,0-426.9C28.1,0,81.3,0,134.5,0z"/>
		<path fill="#FFFFFF" d="M311.7,128.8c0.3,5.9,0.8,10.8,0.8,15.7c0.1,72.8,0.1,145.5,0,218.3c-0.1,34.8-9.8,44.1-44.9,44.2
			c-55.5,0-111.1,0.1-166.6,0c-24.7-0.1-37.4-10.3-37.6-34.3c-0.8-79.4-0.3-158.8-0.2-238.2c0-1.5,1-3.1,1.9-5.5
			C146.9,128.8,228.8,128.8,311.7,128.8z M138.5,260.2c0-29.4,0.5-58.8-0.4-88.1c-0.2-5.5-5.9-10.9-9.1-16.4
			c-3.5,5.3-9.9,10.6-10,15.9c-0.7,58.2-0.7,116.4,0,174.5c0.1,5.6,6.3,11.1,9.6,16.6c3.3-5.4,9.3-10.7,9.5-16.2
			C139,317.9,138.5,289,138.5,260.2z M237.1,258.3c0,29.4-0.5,58.8,0.4,88.1c0.2,5.6,6.1,11,9.3,16.4c3.4-5.5,9.7-10.9,9.8-16.5
			c0.7-58.2,0.7-116.4,0-174.5c-0.1-5.4-6.4-10.7-9.8-16.1c-3.3,5.4-9.2,10.7-9.3,16.2C236.6,200.7,237.1,229.5,237.1,258.3z
			 M177.8,258.4c0,29.4-0.5,58.7,0.5,88c0.2,5.5,6.2,10.9,9.6,16.3c3.3-5.5,9.5-10.9,9.6-16.4c0.7-58.1,0.7-116.3,0-174.4
			c-0.1-5.4-6.3-10.7-9.7-16c-3.3,5.4-9.3,10.7-9.5,16.1C177.3,200.8,177.9,229.6,177.8,258.4z"/>
		<path fill="#FFFFFF" d="M187.9,107.7c-41.1,0-82.1,0-123.2,0c-5.5,0-12.4,1.3-16.3-1.4c-5.6-3.9-12.7-11-12.6-16.6
			C36,84.1,43.2,77,49,73.6c4.6-2.7,11.9-1.3,18-1.3c80.5-0.1,160.9,0,241.4,0c5.5,0,12.3-1.6,16.4,1c6.3,3.9,15.5,11.3,14.9,16.1
			c-0.8,6.5-8.8,15.3-15.4,17.2c-10.3,3-22,1.1-33.1,1.2C256.7,107.7,222.3,107.7,187.9,107.7z"/>
		<path fill="#FFFFFF" d="M125.4,51c-2.2-24.3,3.4-30.8,25.8-31c24.4-0.1,48.9-0.2,73.4,0c22.3,0.1,28,6.8,25.7,31
			C209,51,167.7,51,125.4,51z"/>
		<path d="M138.5,260.2c0,28.8,0.5,57.6-0.4,86.4c-0.2,5.5-6.2,10.8-9.5,16.2c-3.4-5.5-9.5-11-9.6-16.6c-0.7-58.2-0.7-116.4,0-174.5
			c0.1-5.3,6.5-10.6,10-15.9c3.2,5.5,9,10.8,9.1,16.4C139,201.5,138.5,230.9,138.5,260.2z"/>
		<path d="M237.1,258.3c0-28.8-0.5-57.6,0.4-86.4c0.2-5.5,6.1-10.8,9.3-16.2c3.4,5.4,9.7,10.7,9.8,16.1c0.7,58.2,0.7,116.4,0,174.5
			c-0.1,5.5-6.4,11-9.8,16.5c-3.3-5.5-9.1-10.9-9.3-16.4C236.6,317.1,237.1,287.7,237.1,258.3z"/>
		<path d="M177.8,258.4c0-28.8-0.5-57.6,0.4-86.4c0.2-5.5,6.2-10.8,9.5-16.1c3.4,5.3,9.6,10.6,9.7,16c0.7,58.1,0.7,116.3,0,174.4
			c-0.1,5.5-6.2,11-9.6,16.4c-3.3-5.4-9.4-10.8-9.6-16.3C177.3,317.2,177.8,287.8,177.8,258.4z"/>
	</g>
</g>
</svg>
